<?xml version="1.0" standalone="no"?><!DOCTYPE svg PUBLIC "-//W3C//DTD SVG 1.1//EN" "http://www.w3.org/Graphics/SVG/1.1/DTD/svg11.dtd"><svg viewBox="0 0 32 32" name="FootballRedYellowCard" version="1.1" xmlns="http://www.w3.org/2000/svg" xmlns:xlink="http://www.w3.org/1999/xlink" style="block-size:14px;display:block;font-size:12px;height:14px;inline-size:14px;max-block-size:14px;max-height:14px;min-inline-size:14px;min-width:14px;perspective-origin:7px 7px;transform-origin:7px 7px;white-space:nowrap;width:14px;"><path fill="#ffce00" d="M13.714 4.571h9.143c2.525 0 4.571 2.047 4.571 4.571v18.286c0 2.525-2.047 4.571-4.571 4.571h-9.143c-2.525 0-4.571-2.047-4.571-4.571v-18.286c0-2.525 2.047-4.571 4.571-4.571z" style="block-size:auto;d:path(&quot;M 13.714 4.571 H 22.857 C 25.382 4.571 27.428 6.618 27.428 9.142 V 27.428 C 27.428 29.953 25.381 31.999 22.857 31.999 H 13.714 C 11.189 31.999 9.143 29.952 9.143 27.428 V 9.142 C 9.143 6.617 11.19 4.571 13.714 4.571 Z&quot;);fill:rgb(255, 206, 0);font-size:12px;height:auto;inline-size:auto;overflow-x:visible;overflow-y:visible;perspective-origin:0px 0px;transform-origin:0px 0px;white-space:nowrap;width:auto;"/><path fill="#df2357" d="M9.143 0h9.143c2.525 0 4.571 2.047 4.571 4.571v18.286c0 2.525-2.047 4.571-4.571 4.571h-9.143c-2.525 0-4.571-2.047-4.571-4.571v-18.286c0-2.525 2.047-4.571 4.571-4.571z" style="block-size:auto;d:path(&quot;M 9.143 0 H 18.286 C 20.811 0 22.857 2.047 22.857 4.571 V 22.857 C 22.857 25.382 20.81 27.428 18.286 27.428 H 9.143 C 6.618 27.428 4.572 25.381 4.572 22.857 V 4.571 C 4.572 2.046 6.619 -9.53674e-7 9.143 -9.53674e-7 Z&quot;);fill:rgb(223, 35, 87);font-size:12px;height:auto;inline-size:auto;overflow-x:visible;overflow-y:visible;perspective-origin:0px 0px;transform-origin:0px 0px;white-space:nowrap;width:auto;"/></svg>