<?xml version="1.0" standalone="no"?><!DOCTYPE svg PUBLIC "-//W3C//DTD SVG 1.1//EN" "http://www.w3.org/Graphics/SVG/1.1/DTD/svg11.dtd"><svg width="14" height="14" name="FootballOwnGoal" version="1.1" xmlns="http://www.w3.org/2000/svg" xmlns:xlink="http://www.w3.org/1999/xlink" style="block-size:14px;display:block;font-size:12px;height:14px;inline-size:14px;max-block-size:14px;max-height:14px;min-inline-size:14px;min-width:14px;perspective-origin:7px 7px;transform-origin:7px 7px;white-space:nowrap;width:14px;"><g fill="none" fill-rule="evenodd" style="block-size:auto;fill:none;fill-rule:evenodd;font-size:12px;height:auto;inline-size:auto;overflow-x:visible;overflow-y:visible;perspective-origin:0px 0px;transform-origin:0px 0px;white-space:nowrap;width:auto;"><circle cx="7" cy="7" r="6" fill="#FDFDFD" style="block-size:auto;cx:7px;cy:7px;fill:rgb(253, 253, 253);fill-rule:evenodd;font-size:12px;height:auto;inline-size:auto;overflow-x:visible;overflow-y:visible;perspective-origin:0px 0px;r:6px;transform-origin:0px 0px;white-space:nowrap;width:auto;"/><path fill="#DF2357" d="M7 0h.28H7a6.8 6.8 0 01.56.02l.14.01.25.03h.02l.04.01.22.04.13.02.14.03.13.03.24.06.08.03.23.07.04.01.53.2.03.01c.95.42 1.8 1.03 2.47 1.8a5.96 5.96 0 01.62.82l.08.13.06.1c.42.7.72 1.49.87 2.32l.02.07a7.47 7.47 0 01.07 1.85 6.97 6.97 0 01-.94 2.9l-.03.05-.08.13.1-.18-.2.34-.03.04-.37.5-.04.03c-.12.16-.26.3-.4.45l-.05.05-.12.12-.4.35-.07.05-.19.15-.04.02v.01l-.25.17.25-.18a7.3 7.3 0 01-1.67.9l-.05.02-.22.08-.06.02a5.9 5.9 0 01-.37.1l-.16.04a6.95 6.95 0 01-3.11.01l-.06-.01-.15-.04-.09-.02-.03-.01a6.16 6.16 0 01-.24-.07l-.09-.03-.2-.07-.06-.02a7.96 7.96 0 01-.24-.1h-.03c-.5-.22-.96-.48-1.38-.79h-.01l-.04-.03-.2-.16.24.18a6.66 6.66 0 01-.82-.7l-.05-.04a6.47 6.47 0 01-.4-.45l-.04-.04A6.97 6.97 0 01.03 7.66a7.5 7.5 0 010-1.34l.02-.13.01-.11.04-.27.02-.11c.16-.82.45-1.59.87-2.28l.06-.1.08-.13A6.94 6.94 0 014.22.58l.04-.02.51-.2.06-.01.23-.08.06-.01.25-.07c.05 0 .09-.02.13-.03l.14-.03.13-.02L6 .07h.06L6.3.03h.14A3.85 3.85 0 017 0zm1.88 1.3L7.44 2.45a.7.7 0 01-.8.05l-.08-.05L5.12 1.3a6 6 0 00-2.96 2.16l.65 1.72a.7.7 0 01-.2.78L2.54 6 1 7.02v.2a5.96 5.96 0 001.14 3.29l1.83-.09a.7.7 0 01.68.43l.03.09.49 1.77a5.94 5.94 0 003.66 0l.49-1.77a.7.7 0 01.62-.51h.09l1.84.08A5.96 5.96 0 0013 7.02l-1.54-1.01a.7.7 0 01-.3-.75l.03-.08.65-1.72A6.01 6.01 0 008.88 1.3zM7.4 4.5l1.84 1.33c.24.18.35.5.25.79l-.7 2.16a.7.7 0 01-.66.48H5.86a.7.7 0 01-.66-.48l-.7-2.16a.7.7 0 01.25-.78L6.59 4.5a.7.7 0 01.82 0z" style="block-size:auto;d:path(&quot;M 7 0 H 7.28 H 7 A 6.8 6.8 0 0 1 7.56 0.02 L 7.7 0.03 L 7.95 0.06 H 7.97 L 8.01 0.07 L 8.23 0.11 L 8.36 0.13 L 8.5 0.16 L 8.63 0.19 L 8.87 0.25 L 8.95 0.28 L 9.18 0.35 L 9.22 0.36 L 9.75 0.56 L 9.78 0.57 C 10.73 0.99 11.58 1.6 12.25 2.37 A 5.96 5.96 0 0 1 12.87 3.19 L 12.95 3.32 L 13.01 3.42 C 13.43 4.12 13.73 4.91 13.88 5.74 L 13.9 5.81 A 7.47 7.47 0 0 1 13.97 7.66 A 6.97 6.97 0 0 1 13.03 10.56 L 13 10.61 L 12.92 10.74 L 13.02 10.56 L 12.82 10.9 L 12.79 10.94 L 12.42 11.44 L 12.38 11.47 C 12.26 11.63 12.12 11.77 11.98 11.92 L 11.93 11.97 L 11.81 12.09 L 11.41 12.44 L 11.34 12.49 L 11.15 12.64 L 11.11 12.66 V 12.67 L 10.86 12.84 L 11.11 12.66 A 7.3 7.3 0 0 1 9.44 13.56 L 9.39 13.58 L 9.17 13.66 L 9.11 13.68 A 5.9 5.9 0 0 1 8.74 13.78 L 8.58 13.82 A 6.95 6.95 0 0 1 5.47 13.83 L 5.41 13.82 L 5.26 13.78 L 5.17 13.76 L 5.14 13.75 A 6.16 6.16 0 0 1 4.9 13.68 L 4.81 13.65 L 4.61 13.58 L 4.55 13.56 A 7.96 7.96 0 0 1 4.31 13.46 H 4.28 C 3.78 13.24 3.32 12.98 2.9 12.67 H 2.89 L 2.85 12.64 L 2.65 12.48 L 2.89 12.66 A 6.66 6.66 0 0 1 2.07 11.96 L 2.02 11.92 A 6.47 6.47 0 0 1 1.62 11.47 L 1.58 11.43 A 6.97 6.97 0 0 1 0.03 7.66 A 7.5 7.5 0 0 1 0.03 6.32 L 0.05 6.19 L 0.06 6.08 L 0.1 5.81 L 0.12 5.7 C 0.28 4.88 0.57 4.11 0.99 3.42 L 1.05 3.32 L 1.13 3.19 A 6.94 6.94 0 0 1 4.22 0.58 L 4.26 0.56 L 4.77 0.36 L 4.83 0.35 L 5.06 0.27 L 5.12 0.26 L 5.37 0.19 C 5.42 0.19 5.46 0.17 5.5 0.16 L 5.64 0.13 L 5.77 0.11 L 6 0.07 H 6.06 L 6.3 0.03 H 6.44 A 3.85 3.85 0 0 1 7 0 Z M 8.88 1.3 L 7.44 2.45 A 0.7 0.7 0 0 1 6.64 2.5 L 6.56 2.45 L 5.12 1.3 A 6 6 0 0 0 2.16 3.46 L 2.81 5.18 A 0.7 0.7 0 0 1 2.61 5.96 L 2.54 6 L 1 7.02 V 7.22 A 5.96 5.96 0 0 0 2.14 10.51 L 3.97 10.42 A 0.7 0.7 0 0 1 4.65 10.85 L 4.68 10.94 L 5.17 12.71 A 5.94 5.94 0 0 0 8.83 12.71 L 9.32 10.94 A 0.7 0.7 0 0 1 9.94 10.43 H 10.03 L 11.87 10.51 A 5.96 5.96 0 0 0 13 7.02 L 11.46 6.01 A 0.7 0.7 0 0 1 11.16 5.26 L 11.19 5.18 L 11.84 3.46 A 6.01 6.01 0 0 0 8.88 1.3 Z M 7.4 4.5 L 9.24 5.83 C 9.48 6.01 9.59 6.33 9.49 6.62 L 8.79 8.78 A 0.7 0.7 0 0 1 8.13 9.26 H 5.86 A 0.7 0.7 0 0 1 5.2 8.78 L 4.5 6.62 A 0.7 0.7 0 0 1 4.75 5.84 L 6.59 4.5 A 0.7 0.7 0 0 1 7.41 4.5 Z&quot;);fill:rgb(223, 35, 87);fill-rule:evenodd;font-size:12px;height:auto;inline-size:auto;overflow-x:visible;overflow-y:visible;perspective-origin:0px 0px;transform-origin:0px 0px;white-space:nowrap;width:auto;"/></g></svg>